<svg width="705" height="118" viewBox="0 0 705 118" fill="none" xmlns="http://www.w3.org/2000/svg">
<rect width="118" height="118" fill="#E5EBF7"/>
<path d="M119 1.00571e-05L0 115L-5.02681e-06 1.52588e-05L119 1.00571e-05Z" fill="#E7681F"/>
<path d="M118 118L0 0L118 0L118 118Z" fill="#274698"/>
<path d="M702.086 33.4245L695.728 37.6278C694.758 35.6878 693.141 33.5323 691.524 32.239C690.123 31.1612 687.537 29.7601 683.441 29.7601C676.328 29.7601 671.37 34.1789 671.37 40.861C671.37 43.6632 672.125 45.2798 674.065 47.112C676.22 49.2675 678.915 50.4531 681.609 51.6386L688.507 54.6563C692.71 56.4885 696.59 58.4285 699.608 61.4462C703.272 65.1106 704.781 69.3139 704.781 74.4871C704.781 87.7435 694.973 96.5811 682.04 96.5811C677.298 96.5811 671.37 95.6112 666.413 90.7612C662.856 87.3124 660.7 82.3547 659.73 78.0437L667.49 75.8882C668.029 79.6603 669.754 82.8936 671.801 85.0491C674.927 88.1746 678.483 89.0368 682.148 89.0368C691.955 89.0368 696.59 82.0314 696.59 74.8104C696.59 71.5771 695.62 68.775 693.033 66.4039C690.985 64.4639 688.183 63.1706 684.411 61.4462L677.945 58.4285C675.142 57.1352 671.586 55.6263 668.353 52.5008C665.227 49.4831 663.395 46.142 663.395 40.7533C663.395 29.6524 671.909 22.2158 683.549 22.2158C687.968 22.2158 691.524 23.078 695.081 25.4491C697.991 27.3891 700.47 30.299 702.086 33.4245Z" fill="black"/>
<path d="M648.9 29.329V39.2444C646.637 36.9811 643.188 34.2867 639.524 32.5623C635.752 30.8379 631.333 29.7601 627.13 29.7601C610.532 29.7601 598.246 43.1243 598.246 59.7218C598.246 79.2292 614.089 89.0368 627.237 89.0368C632.087 89.0368 636.829 87.6357 640.602 85.6958C644.697 83.648 647.607 80.9536 648.9 79.6603V89.5757C640.925 95.2878 632.626 96.5811 627.237 96.5811C605.898 96.5811 590.055 80.4148 590.055 59.614C590.055 38.1666 606.113 22.2158 627.668 22.2158C631.979 22.2158 640.278 22.7547 648.9 29.329Z" fill="black"/>
<path d="M484.896 25.5562H492.872V97.4426H484.896V25.5562Z" fill="black"/>
<path d="M519.293 96.865H519.793V96.365V37.254L578.893 96.7174L579.748 97.5773V96.365V25.9535V25.4535H579.248H574.537H574.037V25.9535V84.3438L514.937 24.8804L514.083 24.0206V25.2329V96.365V96.865H514.583H519.293Z" fill="black" stroke="black"/>
<path d="M446.27 25.5562H454.245V89.8983H474.076V97.4426H446.27V25.5562Z" fill="black"/>
<path d="M322.742 24.1558H327.893L348.93 83.2554L369.322 24.1558H374.474L348.93 96.3656L322.742 24.1558Z" fill="black"/>
<path d="M277.926 22.4312C298.942 22.4312 315.217 38.8131 315.217 59.506C315.217 80.199 298.942 96.4732 277.926 96.4732C256.802 96.4732 240.636 80.199 240.636 59.506C240.636 38.8131 256.91 22.4312 277.926 22.4312ZM277.926 92.1621C296.464 92.1621 310.259 77.8279 310.259 59.506C310.259 41.0764 296.464 26.7422 277.926 26.7422C259.389 26.7422 245.593 41.0764 245.593 59.506C245.593 77.8279 259.389 92.1621 277.926 92.1621Z" fill="black"/>
<path d="M164.742 96.4731H160V22L220.354 85.1566V22.7544H225.097V96.4731L164.742 33.3165V96.4731Z" fill="black"/>
<path d="M405.812 24.4429L375.542 96.4429H380.406L405.812 36.0049L430.677 96.4429H435.542L405.812 24.4429Z" fill="black"/>
</svg>
